# xmcd CD database file
#
# Track frame offsets:
#	150
#	17030
#	31306
#	48186
#
# Disc length: 830 seconds
#
# Revision: 2
# Processed by: cddbd v1.5.2PL0 Copyright (c) Steve Scherf et al.
# Submitted via: CDex 1.70beta3
#
DISCID=25033c04
DTITLE=神宮寺レン (CV.諏訪部順一) - うたの☆プリンスさまっ♪マジLOVE1000% アイドルソング ★ 神宮寺レン (CV.諏訪部順一)
DYEAR=2011
DGENRE=Anime
TTITLE0=世界の果てまでBelieve Heart
TTITLE1=Dear... Burning my Lady!
TTITLE2=世界の果てまでBelieve Heart (off vocal)
TTITLE3=Dear... Burning my Lady! (off vocal)
EXTD=YEAR: 2011
EXTT0=
EXTT1=
EXTT2=
EXTT3=
PLAYORDER=
